<svg width="14" height="10" viewBox="0 0 14 10" fill="none" xmlns="http://www.w3.org/2000/svg">
<path fill-rule="evenodd" clip-rule="evenodd" d="M1.375 0.6875C1.68566 0.6875 1.9375 0.93934 1.9375 1.25C1.9375 2.56667 2.47351 3.3353 3.10992 3.79351C3.77501 4.27238 4.59001 4.4375 5.125 4.4375L11.267 4.4375L8.47725 1.64775C8.25758 1.42808 8.25758 1.07192 8.47725 0.852252C8.69692 0.632582 9.05308 0.632583 9.27275 0.852253L13.0227 4.60225C13.2424 4.82192 13.2424 5.17808 13.0227 5.39775L9.27275 9.14775C9.05308 9.36742 8.69692 9.36742 8.47725 9.14775C8.25758 8.92808 8.25758 8.57192 8.47725 8.35225L11.267 5.5625L5.125 5.5625C4.40999 5.5625 3.34999 5.35262 2.45258 4.70649C1.52649 4.0397 0.8125 2.93333 0.8125 1.25C0.8125 0.93934 1.06434 0.6875 1.375 0.6875Z" fill="#878888"/>
</svg>
