<svg version="1.1" id="Layer_1" xmlns="http://www.w3.org/2000/svg" xmlns:xlink="http://www.w3.org/1999/xlink" x="0px" y="0px"
	 width="100%" viewBox="0 0 176 153" enable-background="new 0 0 176 153" xml:space="preserve">
<path fill="#000000" opacity="1.000000" stroke="none" 
	d="
M22.361046,153.775284 
	C16.004559,154.000000 10.004606,153.864929 4.015851,154.065033 
	C1.544874,154.147583 0.906004,153.558578 0.929797,151.017578 
	C1.071690,135.863770 1.000000,120.707954 1.000000,105.552811 
	C1.000000,72.078270 1.047368,38.603550 0.922341,5.129473 
	C0.910611,1.988954 1.171836,0.877061 4.865061,0.887696 
	C60.988583,1.049308 117.112762,1.028382 173.236557,0.923342 
	C176.319107,0.917573 177.090988,1.568702 177.083191,4.731201 
	C176.963745,53.194054 176.944321,101.657478 177.111420,150.120056 
	C177.124039,153.783325 176.058334,154.103271 172.885101,154.081802 
	C150.236694,153.928528 127.586761,154.000000 104.468658,154.000000 
	C101.582512,151.476379 103.675896,148.525024 103.241577,145.377869 
	C104.610077,141.272766 104.618317,137.551895 104.074913,133.706268 
	C103.637543,130.611099 103.400490,127.434959 104.376770,123.946953 
	C104.551437,122.743660 104.408920,121.721298 104.955101,121.171402 
	C109.670471,116.423996 106.997078,112.089638 104.165718,107.899475 
	C102.317375,105.164078 101.002525,102.129715 98.952744,99.101151 
	C98.548294,96.381813 99.005211,94.158127 100.368164,91.763016 
	C106.282372,86.563873 104.719170,80.731125 102.707199,74.489807 
	C105.897179,67.630859 103.679825,60.603668 101.771812,54.984909 
	C100.201019,50.359226 95.426086,45.619564 90.924767,42.194962 
	C89.163872,40.855274 86.311256,40.823589 84.862854,38.464554 
	C83.518661,36.275227 81.661598,37.242641 80.045639,38.061157 
	C76.861618,39.673931 74.028313,40.579414 71.251755,37.069405 
	C69.832939,35.275795 68.017357,36.290813 66.619926,37.865051 
	C63.968998,40.851395 62.149445,44.963455 56.715748,43.820248 
	C55.041893,43.468079 54.535038,46.067902 54.351711,47.685253 
	C53.875950,51.882542 53.550278,55.955582 48.601444,57.725933 
	C46.811462,58.366264 47.232819,60.579239 47.280182,62.202938 
	C47.372936,65.382797 48.620419,68.340462 49.250481,71.786575 
	C46.253841,78.812897 47.587952,85.153030 50.680191,91.720230 
	C48.190098,96.009659 42.947987,97.181412 41.318172,102.052513 
	C39.040413,108.860161 34.803627,115.176025 36.656189,123.280548 
	C37.200466,129.968536 35.212639,136.051971 35.024117,142.313889 
	C34.930832,145.412369 36.043362,148.536087 34.656536,151.947159 
	C30.652113,154.027618 26.502634,152.080139 22.361046,153.775284 
z"/>
<path fill="#FD9F60" opacity="1.000000" stroke="none" 
	d="
M102.293053,91.791885 
	C101.464455,94.159050 100.870049,96.193169 100.179230,98.580185 
	C100.999519,101.237816 100.360329,103.325539 98.611816,104.785400 
	C95.789528,107.141754 96.044464,109.723091 97.102974,112.797844 
	C98.390396,116.537560 100.064857,120.166954 100.820831,124.460625 
	C104.558144,131.158936 104.776627,138.279816 105.697540,145.624268 
	C106.338638,148.668243 104.630249,150.809128 104.007782,153.613312 
	C100.307091,154.000000 96.614182,154.000000 92.460632,154.000000 
	C85.880501,150.791824 85.551071,144.751312 84.855637,139.014069 
	C83.578499,128.477875 83.454613,117.834488 81.786728,107.068130 
	C80.772240,106.423515 80.072136,106.136086 79.208107,106.584587 
	C71.573509,110.547668 66.843727,109.026649 61.981934,100.708328 
	C61.920040,99.300835 62.196964,98.273140 62.939022,97.652130 
	C66.241791,94.888153 66.877411,91.084274 67.322266,86.808289 
	C66.703247,83.702026 71.217087,82.376335 69.172440,79.035904 
	C68.131882,77.565453 67.818695,75.922501 65.848473,75.344437 
	C62.778324,75.234688 62.849171,77.179245 63.076557,78.982079 
	C63.298477,80.741600 63.893196,82.463112 62.675812,84.464661 
	C60.607872,86.230537 58.531929,87.228989 55.801537,87.635231 
	C50.461079,83.967255 52.278770,78.726089 52.250072,73.585251 
	C54.413406,69.034485 56.093590,64.762512 57.227596,60.223766 
	C58.238003,56.179722 61.545597,53.595940 64.566345,51.006233 
	C66.110199,49.682678 68.103859,49.754848 69.611687,51.133343 
	C71.898506,53.224010 74.677292,54.231678 77.452805,55.353580 
	C81.091034,56.824203 83.193413,59.820419 84.620689,63.277294 
	C85.641441,65.749565 87.125824,67.382347 89.786362,68.194191 
	C93.769432,69.409615 96.348503,72.587204 99.247360,75.908173 
	C100.684364,79.984581 99.751442,83.292328 97.201813,86.634331 
	C94.763023,87.873474 92.770523,87.513168 90.470619,86.279694 
	C89.275253,85.190720 89.062668,84.161079 89.264847,82.666595 
	C89.131866,80.441101 90.609070,77.900139 86.988785,77.328003 
	C82.651802,79.992920 82.595436,81.928535 86.619499,86.319839 
	C87.542305,87.964844 87.402611,89.413536 87.340942,90.891434 
	C87.275581,92.457901 86.723007,94.492180 88.600784,95.222336 
	C90.469826,95.949097 91.350441,93.937630 92.544304,92.928635 
	C92.792397,92.718956 93.012535,92.475960 93.538277,92.012360 
	C95.139549,91.057800 96.167938,90.080971 96.919380,88.761436 
	C97.998039,86.867271 99.406845,84.807022 101.832878,85.938629 
	C104.411438,87.141396 103.343163,89.467804 102.293053,91.791885 
z"/>
<path fill="#FEEFD8" opacity="1.000000" stroke="none" 
	d="
M82.546669,104.244583 
	C85.439255,102.717926 85.187904,104.655502 85.187500,106.122353 
	C85.184799,115.904938 86.201988,125.620094 86.908150,135.361313 
	C87.372147,141.762039 88.492317,147.813187 91.992790,153.638947 
	C84.979050,154.000000 77.958107,154.000000 70.468582,154.000000 
	C64.818558,152.274338 59.851112,150.138794 55.467819,146.782318 
	C53.882706,145.568542 52.173092,144.535660 51.577713,142.039093 
	C50.639114,138.556381 52.245079,135.356583 50.953022,131.917999 
	C47.761089,121.379143 53.161270,113.615654 58.398491,105.929405 
	C59.930099,103.681572 62.478115,103.322479 65.009438,105.059608 
	C72.915596,110.485222 72.927826,110.460716 80.894981,105.119354 
	C81.301384,104.846893 81.792351,104.694260 82.546669,104.244583 
z"/>
<path fill="#E88B4D" opacity="1.000000" stroke="none" 
	d="
M52.771523,142.222824 
	C58.511047,146.166855 64.132477,149.766052 69.876953,153.682617 
	C59.312439,154.000000 48.624878,154.000000 37.468658,154.000000 
	C36.232464,153.197174 35.023869,153.227539 34.054977,152.238846 
	C30.759253,142.436646 34.053974,133.171112 35.087616,123.388382 
	C36.209221,122.242958 37.500626,122.113777 38.416965,122.776474 
	C42.253815,125.551315 47.023739,126.744621 50.706738,130.360992 
	C51.776737,132.885818 51.645676,135.197113 51.404533,137.436996 
	C51.216854,139.180252 51.332130,140.648010 52.771523,142.222824 
z"/>
<path fill="#CA8D59" opacity="1.000000" stroke="none" 
	d="
M33.456566,151.975708 
	C35.006821,152.114426 35.972382,152.521118 36.822533,153.730682 
	C32.310745,154.000000 27.621489,154.000000 22.466118,154.000000 
	C25.047115,149.914810 29.389599,152.940079 33.456566,151.975708 
z"/>
<path fill="#693506" opacity="1.000000" stroke="none" 
	d="
M98.336670,75.936279 
	C92.513863,70.883751 82.837929,70.878525 81.219322,61.315556 
	C80.850677,59.137505 78.748207,57.764984 76.562073,57.244762 
	C72.609116,56.304096 69.069969,54.794159 66.942017,51.120640 
	C62.417866,56.080624 57.739765,60.501057 57.714069,67.726486 
	C57.708263,69.358467 55.663754,70.983208 54.283726,72.824898 
	C52.132858,74.190308 50.309723,74.393387 48.354469,72.381668 
	C44.400772,67.544945 44.884979,62.217236 45.193916,56.963703 
	C45.263901,55.773560 46.614025,54.274139 47.304623,54.507557 
	C53.290138,56.530663 51.152378,51.374016 51.855370,49.204136 
	C52.384995,47.569370 52.192413,45.651932 52.856548,43.907448 
	C54.562870,39.425453 56.859531,38.952625 60.220425,42.645332 
	C61.937920,40.218922 63.513828,37.720474 65.363235,35.444237 
	C68.060486,32.124485 72.328964,32.274635 73.701553,36.116772 
	C74.743813,39.034252 75.634743,37.727100 77.018173,37.004906 
	C78.779869,36.085258 80.527222,35.122208 82.351311,34.343044 
	C83.819206,33.716038 86.106468,33.747845 86.272621,35.191242 
	C86.732048,39.182373 88.768204,39.673309 92.244972,39.607151 
	C95.467918,39.545822 96.393723,42.560482 96.807365,45.203144 
	C97.143303,47.349312 97.506027,48.650112 100.099640,49.256569 
	C103.944923,50.155689 106.079292,52.707394 104.515190,57.074825 
	C104.198204,57.959961 103.877724,59.418030 104.327927,59.914333 
	C108.533470,64.550545 106.347572,69.099953 104.074371,73.894547 
	C102.585167,76.096352 100.882912,76.706154 98.336670,75.936279 
z"/>
<path fill="#5C997F" opacity="1.000000" stroke="none" 
	d="
M51.044342,131.119965 
	C44.972851,129.893143 40.265671,126.761230 35.475021,123.071838 
	C33.512054,121.204010 32.849911,119.644104 33.781570,116.881050 
	C35.641876,111.363884 37.047600,105.760445 39.671154,100.450317 
	C41.830723,96.079308 44.991882,93.546669 49.666519,91.891006 
	C51.477699,89.765907 53.455360,89.834312 55.987526,90.476944 
	C60.744930,91.782845 62.815269,94.716949 62.945503,99.573898 
	C68.706085,107.498436 71.646362,108.271172 79.723129,104.457199 
	C80.427986,104.124359 81.306389,104.159058 82.482811,104.025658 
	C76.313454,113.266457 72.526161,113.900948 64.133507,106.681679 
	C61.895630,104.756691 60.902920,105.334991 59.594727,107.387192 
	C55.180012,114.312698 51.674496,121.517197 52.031853,130.461975 
	C51.701958,131.004669 51.522636,131.130463 51.044342,131.119965 
z"/>
<path fill="#8BB2D1" opacity="1.000000" stroke="none" 
	d="
M134.192078,114.999382 
	C125.762161,113.859329 118.744713,111.418411 114.768692,103.402275 
	C113.197495,100.234543 111.549728,96.445297 113.865547,94.408134 
	C116.092087,92.449509 119.601952,94.596191 122.000916,97.475800 
	C122.000916,95.589294 122.151939,93.687347 121.961174,91.820335 
	C121.742096,89.676201 122.755203,88.294579 124.378830,87.298996 
	C126.141747,86.217995 127.832672,87.558594 128.829636,88.453056 
	C131.973694,91.273895 135.207001,94.173363 136.330597,98.737534 
	C138.466721,98.038582 138.259537,93.612602 141.778015,95.331764 
	C145.744598,97.269882 148.047531,100.670204 148.894196,104.704781 
	C150.090149,110.403893 146.304581,114.155624 139.135239,114.969414 
	C137.654404,115.137512 136.138611,114.997566 134.192078,114.999382 
z"/>
<path fill="#8BB2D1" opacity="1.000000" stroke="none" 
	d="
M39.975502,37.661324 
	C33.747292,53.838238 20.211891,53.429352 10.823653,50.825886 
	C5.837147,49.443069 4.699879,46.069706 6.959922,41.274387 
	C7.855684,39.373779 8.785855,37.413742 10.093627,35.799332 
	C12.520654,32.803223 15.709607,33.556164 17.400055,37.542381 
	C18.873379,34.206615 20.777626,31.338102 23.448906,29.068275 
	C27.584635,25.554079 30.527582,26.420940 31.822281,31.570137 
	C32.139618,32.832230 32.058304,34.194553 32.162418,35.538548 
	C37.890675,31.666485 39.330681,31.991039 39.975502,37.661324 
z"/>
<path fill="#5C997F" opacity="1.000000" stroke="none" 
	d="
M99.424271,125.011803 
	C98.722511,123.693726 98.372498,122.584305 97.941925,121.507072 
	C94.893089,113.879272 90.400986,106.146179 99.878510,99.211533 
	C104.740944,103.334648 107.746277,108.764229 110.043411,114.675697 
	C111.488403,118.394272 108.372696,119.755157 106.304489,121.998238 
	C104.337944,124.047089 103.044189,126.681686 99.424271,125.011803 
z"/>
<path fill="#E78A4C" opacity="1.000000" stroke="none" 
	d="
M57.306801,91.474869 
	C55.000626,92.630974 52.942863,92.069092 50.459160,91.864258 
	C44.043476,85.167801 43.302189,78.739746 47.969788,72.376541 
	C49.900642,71.870949 51.710258,71.516701 53.661507,72.879654 
	C54.310852,77.518944 53.763859,82.097794 55.777485,86.683136 
	C57.758434,87.896797 58.190178,89.337257 57.306801,91.474869 
z"/>
<path fill="#E78A4C" opacity="1.000000" stroke="none" 
	d="
M97.986115,76.258392 
	C99.401649,74.411987 101.197067,74.211288 103.412399,74.180466 
	C108.403168,79.627548 108.098389,85.354492 102.430443,92.062271 
	C102.058853,90.536987 102.058853,88.949051 102.058853,86.902550 
	C98.172699,87.906906 97.673546,91.446480 95.313980,93.545609 
	C92.247025,91.271042 93.005600,88.951584 95.691528,86.386597 
	C97.385246,83.092506 97.884499,79.930244 97.986115,76.258392 
z"/>
<path fill="#E88D4F" opacity="1.000000" stroke="none" 
	d="
M99.150665,125.167496 
	C101.177460,123.909599 103.245117,123.030945 105.654251,122.151627 
	C105.988373,129.783569 105.981026,137.416168 105.911964,145.510284 
	C103.630676,139.163452 101.411102,132.355087 99.150665,125.167496 
z"/>
<path fill="#8DB3D1" opacity="1.000000" stroke="none" 
	d="
M21.861378,73.933762 
	C18.607370,71.379837 20.008514,68.823669 21.527842,64.965263 
	C21.932787,68.793549 24.277819,71.120636 21.861378,73.933762 
z"/>
<path fill="#8DB3D1" opacity="1.000000" stroke="none" 
	d="
M140.946823,120.221924 
	C142.641281,120.788383 143.864304,125.746651 142.644897,126.624184 
	C141.553421,127.409637 140.636276,126.489670 140.366959,125.659500 
	C139.823105,123.983002 139.427597,122.169708 140.946823,120.221924 
z"/>
<path fill="#8DB3D1" opacity="1.000000" stroke="none" 
	d="
M137.005432,133.281494 
	C137.157013,131.688522 137.304276,130.066849 138.839111,131.714157 
	C139.619598,132.551834 139.726883,134.098755 139.943970,135.358566 
	C140.214447,136.928055 139.888611,138.779556 138.118591,138.794739 
	C136.068695,138.812317 137.331375,136.771439 137.034073,135.677383 
	C136.867096,135.062912 137.003647,134.365952 137.005432,133.281494 
z"/>
<path fill="#8DB3D1" opacity="1.000000" stroke="none" 
	d="
M133.549759,121.355225 
	C134.182526,124.085724 136.108322,126.736938 132.718781,129.335526 
	C132.027176,126.282845 130.915817,123.678467 133.549759,121.355225 
z"/>
<path fill="#8BB2D1" opacity="1.000000" stroke="none" 
	d="
M24.961916,58.047112 
	C25.115423,55.917145 26.153139,56.134552 26.584591,57.231220 
	C27.422367,59.360680 27.124521,61.628815 26.535070,64.602760 
	C24.523155,62.381359 22.964548,60.884048 24.961916,58.047112 
z"/>
<path fill="#8DB3D1" opacity="1.000000" stroke="none" 
	d="
M125.994019,121.215775 
	C125.942451,123.159950 126.443916,124.959862 124.450951,125.680412 
	C124.202805,125.770142 123.383446,124.930138 123.183800,124.389755 
	C122.379013,122.211525 123.775810,120.367325 124.557373,118.551125 
	C124.701218,118.216850 125.998093,119.663147 125.994019,121.215775 
z"/>
<path fill="#8DB3D1" opacity="1.000000" stroke="none" 
	d="
M16.833538,55.103172 
	C18.229486,57.204288 18.550262,59.390274 17.769537,61.626278 
	C17.711479,61.792557 16.532433,61.825733 16.486897,61.699635 
	C15.702840,59.528568 15.765378,57.320843 16.833538,55.103172 
z"/>
<path fill="#8DB3D1" opacity="1.000000" stroke="none" 
	d="
M128.826019,134.574829 
	C129.064514,136.607193 129.216553,138.511169 127.067688,138.823257 
	C125.600822,139.036270 125.930016,137.435181 126.065033,136.644241 
	C126.296272,135.289703 126.030479,133.056625 128.826019,134.574829 
z"/>
<path fill="#F38758" opacity="1.000000" stroke="none" 
	d="
M57.302826,91.985489 
	C56.692730,90.411896 56.361370,89.043243 56.012043,87.318115 
	C57.206635,84.795479 59.119701,83.894142 61.919113,83.861664 
	C64.774017,82.202507 66.635826,83.527016 68.672874,85.400780 
	C69.545433,91.261948 69.223694,96.432976 63.273163,99.733032 
	C61.224117,97.381805 59.402840,94.786110 57.302826,91.985489 
z"/>
<path fill="#F48859" opacity="1.000000" stroke="none" 
	d="
M95.656052,85.986633 
	C95.695847,88.374237 95.362846,90.672775 95.047348,93.354408 
	C92.528748,95.422066 91.032272,100.222099 87.293640,98.151352 
	C83.237831,95.904922 85.022461,91.562546 85.947128,87.544067 
	C86.367699,85.297867 87.572571,84.586563 89.691345,84.820282 
	C91.780304,85.305481 93.531792,85.601517 95.656052,85.986633 
z"/>
<path fill="#F37D3F" opacity="1.000000" stroke="none" 
	d="
M73.885330,90.045151 
	C73.124771,85.767242 75.719887,82.230370 75.326103,78.215851 
	C75.235840,77.295715 76.155701,76.366539 77.333954,76.429070 
	C78.607109,76.496613 78.917053,77.538666 78.917328,78.552223 
	C78.918167,81.727196 79.341537,84.783768 80.587746,87.752029 
	C81.173813,89.147926 80.302902,90.322823 79.112198,91.108536 
	C77.240425,92.343681 75.654648,91.450737 73.885330,90.045151 
z"/>
<path fill="#F9F2EC" opacity="1.000000" stroke="none" 
	d="
M69.112793,85.471085 
	C66.656158,86.039459 64.829346,84.966858 62.644268,83.895508 
	C62.188351,81.384018 60.300354,79.211281 61.111553,76.644928 
	C61.721813,74.714279 62.527950,72.872406 65.482864,73.113419 
	C67.052666,75.137268 67.631981,77.745682 70.761765,78.279846 
	C72.101791,81.215637 71.492500,83.406624 69.112793,85.471085 
z"/>
<path fill="#FEF9F5" opacity="1.000000" stroke="none" 
	d="
M90.163582,84.701614 
	C88.893677,85.633087 87.758537,86.256744 86.331436,87.019554 
	C79.963173,84.786102 79.742508,80.204262 85.813828,75.159248 
	C88.486282,76.592407 88.546310,79.688988 90.799774,81.617195 
	C90.752098,82.724304 90.525215,83.559052 90.163582,84.701614 
z"/>
<path fill="#7C4A25" opacity="1.000000" stroke="none" 
	d="
M91.057312,81.534409 
	C85.778412,82.810860 85.748795,79.551041 86.163162,75.523422 
	C91.365097,74.248177 92.530655,75.670067 91.057312,81.534409 
z"/>
<path fill="#7C4A25" opacity="1.000000" stroke="none" 
	d="
M70.832108,78.221909 
	C69.554749,79.755241 68.536926,82.226639 66.266617,80.320206 
	C64.126846,78.523384 64.082191,76.179451 65.690041,73.474487 
	C68.546417,73.612724 70.181282,75.186317 70.832108,78.221909 
z"/>
<path fill="#FCF2EA" opacity="1.000000" stroke="none" 
	d="
M50.656044,131.413086 
	C50.995285,130.929611 51.245937,130.879196 51.689304,130.855667 
	C53.971916,134.272369 52.674381,138.002426 52.916801,142.072235 
	C50.062534,141.828384 48.644882,140.415436 49.765800,137.215439 
	C50.353775,135.536896 50.319809,133.640503 50.656044,131.413086 
z"/>
</svg>