<svg width="24" height="23" viewBox="0 0 24 23" fill="none" xmlns="http://www.w3.org/2000/svg">
<g id="Outline / Video, Audio, Sound / Camera">
<path id="Vector" fill-rule="evenodd" clip-rule="evenodd" d="M7.59843 4.29972C7.86525 3.04442 9.03088 2.15625 10.3663 2.15625H13.6337C14.9691 2.15625 16.1347 3.04442 16.4016 4.29972C16.4632 4.5895 16.7371 4.80207 17.022 4.80207H17.0384L17.0548 4.80276C18.4582 4.86157 19.5362 5.02662 20.4362 5.59243C21.0032 5.94892 21.4909 6.40758 21.871 6.94278C22.3439 7.60866 22.5524 8.3729 22.6524 9.29722C22.75 10.2003 22.75 11.3323 22.75 12.766V12.8476C22.75 14.2813 22.75 15.4133 22.6524 16.3164C22.5524 17.2407 22.3439 18.005 21.871 18.6709C21.4909 19.2061 21.0032 19.6647 20.4362 20.0212C19.7327 20.4635 18.9262 20.6585 17.948 20.7521C16.9903 20.8438 15.789 20.8438 14.2634 20.8438H9.73657C8.21098 20.8438 7.00967 20.8438 6.05196 20.7521C5.07379 20.6585 4.26731 20.4635 3.56385 20.0212C2.99682 19.6647 2.50905 19.2061 2.12899 18.6709C1.65612 18.005 1.44756 17.2407 1.34762 16.3164C1.24998 15.4133 1.24999 14.2813 1.25 12.8476V12.766C1.24999 11.3323 1.24998 10.2003 1.34762 9.29722C1.44756 8.3729 1.65612 7.60866 2.12899 6.94278C2.50905 6.40758 2.99682 5.94892 3.56385 5.59243C4.46383 5.02662 5.5418 4.86157 6.94523 4.80276L6.96161 4.80207H6.978C7.26288 4.80207 7.53683 4.5895 7.59843 4.29972ZM10.3663 3.59375C9.72522 3.59375 9.18905 4.01829 9.06824 4.58665C8.87258 5.50715 8.021 6.23095 6.99633 6.23949C5.64772 6.29692 4.92536 6.45568 4.38664 6.79437C3.98309 7.04808 3.63752 7.37352 3.36906 7.75155C3.09291 8.14042 2.92696 8.6377 2.83963 9.44537C2.75094 10.2657 2.75 11.3233 2.75 12.8068C2.75 14.2904 2.75094 15.3479 2.83963 16.1683C2.92696 16.9759 3.09291 17.4732 3.36906 17.8621C3.63752 18.2401 3.98309 18.5656 4.38664 18.8193C4.80417 19.0818 5.33844 19.2391 6.20104 19.3217C7.07549 19.4054 8.20193 19.4062 9.77778 19.4062H14.2222C15.7981 19.4062 16.9245 19.4054 17.799 19.3217C18.6616 19.2391 19.1958 19.0818 19.6134 18.8193C20.0169 18.5656 20.3625 18.2401 20.6309 17.8621C20.9071 17.4732 21.073 16.9759 21.1604 16.1683C21.2491 15.3479 21.25 14.2904 21.25 12.8068C21.25 11.3233 21.2491 10.2657 21.1604 9.44537C21.073 8.6377 20.9071 8.14042 20.6309 7.75155C20.3625 7.37352 20.0169 7.04808 19.6134 6.79437C19.0746 6.45568 18.3523 6.29692 17.0037 6.23949C15.979 6.23095 15.1274 5.50715 14.9318 4.58665C14.8109 4.01829 14.2748 3.59375 13.6337 3.59375H10.3663ZM12 10.3021C10.7574 10.3021 9.75 11.2675 9.75 12.4583C9.75 13.6492 10.7574 14.6146 12 14.6146C13.2426 14.6146 14.25 13.6492 14.25 12.4583C14.25 11.2675 13.2426 10.3021 12 10.3021ZM8.25 12.4583C8.25 10.4736 9.92893 8.86458 12 8.86458C14.0711 8.86458 15.75 10.4736 15.75 12.4583C15.75 14.4431 14.0711 16.0521 12 16.0521C9.92893 16.0521 8.25 14.4431 8.25 12.4583ZM17.25 9.58333C17.25 9.18638 17.5858 8.86458 18 8.86458H19C19.4142 8.86458 19.75 9.18638 19.75 9.58333C19.75 9.98029 19.4142 10.3021 19 10.3021H18C17.5858 10.3021 17.25 9.98029 17.25 9.58333Z" fill="#F7F7F7"/>
</g>
</svg>
