<svg width="28" height="28" viewBox="0 0 28 28" fill="none" xmlns="http://www.w3.org/2000/svg">
<path d="M14 20.7085C14.4832 20.7085 14.875 20.3167 14.875 19.8335V12.8335C14.875 12.3502 14.4832 11.9585 14 11.9585C13.5167 11.9585 13.125 12.3502 13.125 12.8335V19.8335C13.125 20.3167 13.5167 20.7085 14 20.7085Z" fill="#10316B"/>
<path d="M14 8.16683C14.6443 8.16683 15.1667 8.68916 15.1667 9.3335C15.1667 9.97783 14.6443 10.5002 14 10.5002C13.3557 10.5002 12.8333 9.97783 12.8333 9.3335C12.8333 8.68916 13.3557 8.16683 14 8.16683Z" fill="#10316B"/>
<path fill-rule="evenodd" clip-rule="evenodd" d="M1.45833 14.0002C1.45833 7.07359 7.07343 1.4585 14 1.4585C20.9266 1.4585 26.5417 7.07359 26.5417 14.0002C26.5417 20.9267 20.9266 26.5418 14 26.5418C7.07343 26.5418 1.45833 20.9267 1.45833 14.0002ZM14 3.2085C8.03993 3.2085 3.20833 8.04009 3.20833 14.0002C3.20833 19.9602 8.03993 24.7918 14 24.7918C19.9601 24.7918 24.7917 19.9602 24.7917 14.0002C24.7917 8.04009 19.9601 3.2085 14 3.2085Z" fill="#10316B"/>
</svg>
