<svg width="19" height="19" viewBox="0 0 19 19" fill="none" xmlns="http://www.w3.org/2000/svg">
<path d="M16.9615 16.8141C16.6199 17.1505 16.0595 17.1505 15.718 16.8141L12.6527 13.795C12.3112 13.4586 12.3112 12.9066 12.6527 12.5702C12.9943 12.2338 13.5547 12.2338 13.8963 12.5702L16.9633 15.591C17.3048 15.9257 17.3048 16.4776 16.9615 16.8141Z" fill="#FFB89A"/>
<path d="M13.9638 8.66933C13.9638 5.33836 11.2224 2.63818 7.84048 2.63818C4.45857 2.63818 1.71533 5.33836 1.71533 8.66933C1.71533 12.0003 4.45679 14.7005 7.8387 14.7005C11.2206 14.7005 13.9638 12.0021 13.9638 8.66933ZM9.80807 13.2602C9.18541 13.5195 8.52362 13.6509 7.84048 13.6509C7.15734 13.6509 6.49554 13.5195 5.87289 13.2602C5.27158 13.0096 4.73076 12.6504 4.26466 12.1931C3.80034 11.7357 3.43564 11.203 3.18124 10.609C2.91795 9.99576 2.78452 9.34394 2.78452 8.67108C2.78452 7.99823 2.91795 7.34641 3.18124 6.73313C3.43564 6.14088 3.80034 5.6082 4.26466 5.14912C4.72898 4.69179 5.2698 4.33258 5.87289 4.08201C6.49554 3.82269 7.15734 3.69127 7.84048 3.69127C8.52362 3.69127 9.18541 3.82269 9.80807 4.08201C10.4094 4.33258 10.9502 4.69179 11.4163 5.14912C11.8806 5.60645 12.2453 6.13912 12.4997 6.73313C12.763 7.34641 12.8964 7.99823 12.8964 8.67108C12.8964 9.34394 12.763 9.99576 12.4997 10.609C12.2453 11.2013 11.8806 11.734 11.4163 12.1931C10.9502 12.6504 10.4094 13.0096 9.80807 13.2602ZM16.3958 14.4429L16.8352 14.0136C17.0451 13.8086 17.0469 13.4757 16.8387 13.2707C16.6306 13.0639 16.2926 13.0622 16.0844 13.2672L15.6397 13.7L15.0063 13.0762L15.5169 12.5733C15.7251 12.3683 15.7251 12.0354 15.5169 11.8303C15.3088 11.6253 14.9708 11.6253 14.7626 11.8303L13.8749 12.7047C13.6668 12.9097 13.6668 13.2426 13.8749 13.4476L15.6806 15.2261C15.9314 15.4732 15.9314 15.8762 15.6806 16.1233C15.4298 16.3703 15.0206 16.3703 14.7697 16.1233L12.2257 13.6176C12.0176 13.4126 11.6796 13.4126 11.4714 13.6176C11.2633 13.8226 11.2633 14.1555 11.4714 14.3606L14.0154 16.8662C14.3481 17.1956 14.7875 17.3586 15.2252 17.3586C15.6628 17.3586 16.1022 17.1939 16.4349 16.8662C17.102 16.2091 17.102 15.1403 16.4349 14.4832L16.3958 14.4429Z" fill="#45484C"/>
<path d="M8.06996 7.57282C8.19449 7.57282 8.31368 7.5956 8.42754 7.6394C8.49159 7.66393 8.55741 7.6762 8.62323 7.6762C8.83671 7.6762 9.03774 7.55004 9.11958 7.34328C9.2281 7.07343 9.09289 6.76855 8.81892 6.66166C8.58054 6.56879 8.32792 6.52148 8.06996 6.52148C7.77464 6.52148 7.53625 6.75628 7.53625 7.04715C7.53625 7.33802 7.77464 7.57282 8.06996 7.57282Z" fill="#33CC99"/>
<path d="M9.58035 8.00875C9.28503 8.00875 9.04665 8.24355 9.04665 8.53442C9.04665 9.06534 8.60901 9.49639 8.06997 9.49639C7.53093 9.49639 7.09329 9.06534 7.09329 8.53442C7.09329 8.34518 7.14844 8.16119 7.25518 8.00349C7.41885 7.76169 7.35125 7.43577 7.10574 7.27457C6.86024 7.11337 6.52934 7.17995 6.36567 7.42176C6.14329 7.75117 6.02588 8.13666 6.02588 8.53442C6.02588 9.64533 6.94207 10.5477 8.06997 10.5477C9.19786 10.5477 10.1141 9.64533 10.1141 8.53442C10.1141 8.24355 9.87567 8.00875 9.58035 8.00875Z" fill="#33CC99"/>
</svg>
