<svg width="18" height="20" viewBox="0 0 18 20" fill="none" xmlns="http://www.w3.org/2000/svg">
<g clip-path="url(#clip0_2164_3897)">
<path d="M15.5916 7.51531C15.1882 6.45165 14.6116 5.49683 13.8761 4.67694C13.1412 3.85705 12.2853 3.21316 11.3324 2.76368C10.3454 2.29757 9.29687 2.06152 8.21662 2.06152C7.13609 2.06152 6.08807 2.29757 5.10107 2.76368C4.14791 3.21316 3.29176 3.85705 2.55683 4.67694C1.8219 5.49683 1.245 6.45169 0.841861 7.51531C0.42429 8.61644 0.212708 9.78589 0.212708 10.991C0.212708 12.1962 0.42429 13.3656 0.841827 14.4668C1.245 15.5298 1.8219 16.4853 2.55683 17.3051C3.29172 18.125 4.14791 18.7683 5.10107 19.2184C6.08807 19.6839 7.13609 19.9199 8.21662 19.9199C9.29687 19.9199 10.3454 19.6839 11.3324 19.2184C12.2853 18.7683 13.1412 18.125 13.8761 17.3051C14.6116 16.4853 15.1882 15.5298 15.5916 14.4668C16.0089 13.3656 16.2205 12.1962 16.2205 10.991C16.2205 9.78589 16.0089 8.61644 15.5916 7.51531Z" fill="#ED5564"/>
<path d="M12.0753 6.68588C11.0446 5.53603 9.67443 4.90283 8.21662 4.90283C6.75877 4.90283 5.38834 5.53603 4.35762 6.68588C3.32689 7.83572 2.75934 9.36492 2.75934 10.991C2.75934 12.617 3.32692 14.1456 4.35762 15.2961C5.38831 16.446 6.75877 17.0791 8.21662 17.0791C9.67443 17.0791 11.0446 16.4459 12.0753 15.2961C13.1066 14.1457 13.6741 12.6171 13.6741 10.991C13.6741 9.36488 13.1066 7.83572 12.0753 6.68588Z" fill="#E6E9ED"/>
<path d="M8.21662 7.74365C6.61169 7.74365 5.30597 9.20028 5.30597 10.991C5.30597 12.7812 6.61165 14.2379 8.21662 14.2379C9.82155 14.2379 11.1272 12.7812 11.1272 10.991C11.1272 9.20028 9.82155 7.74365 8.21662 7.74365Z" fill="#ED5564"/>
<path d="M17.6557 3.57931C17.6093 3.43246 17.4916 3.32781 17.3525 3.31058L15.3262 3.05912L15.1013 0.799235C15.0859 0.644056 14.9921 0.512659 14.8599 0.460907C14.7283 0.409193 14.5812 0.446637 14.4821 0.556648L11.9096 3.42713C11.8505 3.49312 11.8132 3.58052 11.8052 3.67387L11.6192 5.76252C11.6053 5.92066 11.6751 6.07345 11.7982 6.1537C11.8553 6.19057 11.9182 6.20842 11.9816 6.20842C12.0551 6.20842 12.1287 6.18403 12.1915 6.1341L13.4802 5.11862L12.5699 6.55683C12.4878 6.68644 12.4809 6.85764 12.5528 6.99501C12.6184 7.12104 12.7383 7.19658 12.8667 7.19658C12.879 7.19658 12.8907 7.19597 12.903 7.19479L14.7757 6.98786C14.8594 6.97834 14.9372 6.93732 14.9968 6.87073L17.5693 4.00089C17.6685 3.89085 17.7015 3.72676 17.6557 3.57931Z" fill="#F6BB42"/>
<path d="M8.2166 11.3964C8.12335 11.3964 8.03033 11.3572 7.95921 11.2775C7.81718 11.1193 7.81718 10.8625 7.95949 10.7038L9.07968 9.45403C9.22171 9.29527 9.45223 9.29527 9.5945 9.45403C9.73626 9.61218 9.73626 9.8696 9.5945 10.0278L8.47376 11.2775C8.40284 11.3572 8.30959 11.3964 8.2166 11.3964Z" fill="#434A54"/>
<path d="M15.2543 3.14025C15.1924 3.0713 15.0832 2.98926 14.9132 2.98926C14.5785 2.98926 13.9427 3.31682 11.5786 5.69265C10.2953 6.9828 9.09458 8.28961 9.08285 8.3027C9.01275 8.37942 8.97308 8.48406 8.97308 8.59346V9.74091C8.97308 9.96508 9.13616 10.147 9.33707 10.147H10.3662C10.4642 10.147 10.558 10.103 10.6262 10.0245C10.639 10.0103 11.917 8.54944 13.123 7.04524C13.8356 6.1564 14.385 5.4251 14.7565 4.87097C14.9888 4.52439 15.1509 4.24968 15.2521 4.0297C15.3193 3.88403 15.5234 3.44049 15.2543 3.14025Z" fill="#FFCE54"/>
</g>
<defs>
<clipPath id="clip0_2164_3897">
<rect width="17.4633" height="19.4821" fill="white" transform="translate(0.212708 0.437988)"/>
</clipPath>
</defs>
</svg>
