<svg width="24" height="24" viewBox="0 0 24 24" fill="none" xmlns="http://www.w3.org/2000/svg">
<path fill-rule="evenodd" clip-rule="evenodd" d="M6.25001 6C6.25001 3.37665 8.37666 1.25 11 1.25C13.6234 1.25 15.75 3.37665 15.75 6C15.75 8.62335 13.6234 10.75 11 10.75C8.37666 10.75 6.25001 8.62335 6.25001 6ZM11 2.75C9.20509 2.75 7.75001 4.20507 7.75001 6C7.75001 7.79493 9.20509 9.25 11 9.25C12.7949 9.25 14.25 7.79493 14.25 6C14.25 4.20507 12.7949 2.75 11 2.75Z" fill="#AFAFB0"/>
<path fill-rule="evenodd" clip-rule="evenodd" d="M4.97546 13.6643C6.55494 12.7759 8.68646 12.25 11 12.25C13.3136 12.25 15.4451 12.7759 17.0246 13.6643C18.5805 14.5396 19.75 15.8661 19.75 17.5L19.7501 17.602C19.7512 18.7638 19.7526 20.222 18.4736 21.2635C17.8441 21.7761 16.9635 22.1406 15.7738 22.3815C14.5808 22.6229 13.0258 22.75 11 22.75C8.97424 22.75 7.41927 22.6229 6.22622 22.3815C5.03649 22.1406 4.15589 21.7761 3.52642 21.2635C2.2474 20.222 2.24882 18.7638 2.24995 17.602L2.25001 17.5C2.25001 15.8661 3.4195 14.5396 4.97546 13.6643ZM5.71085 14.9717C4.37139 15.7251 3.75001 16.6487 3.75001 17.5C3.75001 18.8078 3.79033 19.544 4.4736 20.1004C4.84413 20.4022 5.46354 20.6967 6.5238 20.9113C7.58075 21.1252 9.02579 21.25 11 21.25C12.9742 21.25 14.4193 21.1252 15.4762 20.9113C16.5365 20.6967 17.1559 20.4022 17.5264 20.1004C18.2097 19.544 18.25 18.8078 18.25 17.5C18.25 16.6487 17.6286 15.7251 16.2892 14.9717C14.9732 14.2315 13.1047 13.75 11 13.75C8.89529 13.75 7.02681 14.2315 5.71085 14.9717Z" fill="#AFAFB0"/>
<path d="M21.5606 8.99827C21.8358 8.68869 21.8079 8.21463 21.4983 7.93944C21.1887 7.66425 20.7146 7.69214 20.4395 8.00173L18.2741 10.4377L17.5017 9.74253C17.1939 9.46544 16.7196 9.49039 16.4425 9.79828C16.1654 10.1062 16.1904 10.5804 16.4983 10.8575L17.8316 12.0575C17.9801 12.1911 18.1757 12.26 18.3751 12.2488C18.5745 12.2377 18.7612 12.1475 18.8939 11.9983L21.5606 8.99827Z" fill="#AFAFB0"/>
</svg>
