<svg width="21" height="20" viewBox="0 0 21 20" fill="none" xmlns="http://www.w3.org/2000/svg">
<path fill-rule="evenodd" clip-rule="evenodd" d="M10.5 1.0415C10.8452 1.0415 11.125 1.32133 11.125 1.6665V3.33317C11.125 3.67835 10.8452 3.95817 10.5 3.95817C10.1548 3.95817 9.87501 3.67835 9.87501 3.33317V1.6665C9.87501 1.32133 10.1548 1.0415 10.5 1.0415ZM15.942 4.5578C16.1861 4.80188 16.1861 5.1976 15.942 5.44168L15.656 5.72773C15.4119 5.97181 15.0162 5.97181 14.7721 5.72773C14.528 5.48366 14.528 5.08793 14.7721 4.84385L15.0582 4.5578C15.3022 4.31372 15.698 4.31372 15.942 4.5578ZM5.05806 4.5579C5.30214 4.31382 5.69787 4.31382 5.94195 4.5579L6.228 4.84395C6.47208 5.08803 6.47208 5.48375 6.228 5.72783C5.98392 5.97191 5.58819 5.97191 5.34411 5.72783L5.05806 5.44178C4.81399 5.1977 4.81399 4.80197 5.05806 4.5579ZM10.4531 6.56821C10.3062 6.75997 10.1338 7.06599 9.85973 7.55764L9.72319 7.80258C9.71312 7.82065 9.70292 7.83912 9.69255 7.8579C9.5765 8.06803 9.43894 8.31711 9.2133 8.4884C8.98395 8.66251 8.70669 8.72401 8.47899 8.77451C8.45876 8.779 8.43893 8.7834 8.41955 8.78778L8.1544 8.84777C7.62074 8.96852 7.29341 9.04442 7.07742 9.12954C7.03109 9.14779 6.99827 9.16327 6.97547 9.17545C6.98771 9.20252 7.00805 9.24135 7.04152 9.29452C7.17071 9.49974 7.39562 9.76523 7.75838 10.1894L7.93914 10.4008C7.95224 10.4161 7.9656 10.4316 7.97917 10.4474C8.13623 10.6297 8.31904 10.8419 8.40342 11.1133C8.48703 11.3821 8.45899 11.6613 8.43454 11.905C8.43242 11.9261 8.43033 11.9469 8.42834 11.9674L8.40101 12.2495C8.34625 12.8146 8.31332 13.1702 8.32436 13.418C8.32649 13.4658 8.33007 13.5027 8.33396 13.5307C8.35384 13.5263 8.37788 13.5203 8.40662 13.5121C8.62922 13.4483 8.93708 13.3085 9.43681 13.0784L9.68506 12.9641C9.70339 12.9557 9.72213 12.947 9.74128 12.938C9.95232 12.8397 10.2125 12.7185 10.5 12.7185C10.7875 12.7185 11.0477 12.8397 11.2587 12.938C11.2779 12.947 11.2966 12.9557 11.3149 12.9641L11.5632 13.0784C12.0629 13.3085 12.3708 13.4483 12.5934 13.5121C12.6221 13.5203 12.6462 13.5263 12.6661 13.5307C12.6699 13.5027 12.6735 13.4658 12.6756 13.418C12.6867 13.1702 12.6538 12.8146 12.599 12.2495L12.5717 11.9674C12.5697 11.9469 12.5676 11.9261 12.5655 11.905C12.541 11.6613 12.513 11.3821 12.5966 11.1133C12.681 10.8419 12.8638 10.6297 13.0209 10.4474C13.0344 10.4316 13.0478 10.4161 13.0609 10.4008L13.2416 10.1894C13.6044 9.76523 13.8293 9.49974 13.9585 9.29452C13.992 9.24135 14.0123 9.20252 14.0245 9.17545C14.0017 9.16327 13.9689 9.14779 13.9226 9.12954C13.7066 9.04442 13.3793 8.96852 12.8456 8.84777L12.5805 8.78778C12.5611 8.7834 12.5413 8.779 12.521 8.77451C12.2933 8.72401 12.0161 8.66251 11.7867 8.4884C11.5611 8.31711 11.4235 8.06802 11.3075 7.85789C11.2971 7.83912 11.2869 7.82065 11.2768 7.80258L11.1403 7.55764C10.8662 7.06599 10.6938 6.75997 10.5469 6.56821C10.5292 6.54508 10.5136 6.52593 10.5 6.51014C10.4864 6.52593 10.4708 6.54508 10.4531 6.56821ZM14.0712 9.20634C14.0708 9.20639 14.0684 9.2045 14.065 9.20051C14.0699 9.20428 14.0716 9.20628 14.0712 9.20634ZM14.041 9.13147C14.0411 9.12658 14.0418 9.12382 14.0421 9.12366C14.0424 9.1235 14.0423 9.12595 14.041 9.13147ZM12.6478 13.6088C12.6477 13.6086 12.6485 13.6066 12.6504 13.6032C12.6489 13.6073 12.6479 13.609 12.6478 13.6088ZM12.7409 13.5417C12.7453 13.541 12.7478 13.541 12.748 13.5412C12.7482 13.5414 12.746 13.5418 12.7409 13.5417ZM8.25202 13.5412C8.2522 13.541 8.25473 13.541 8.25909 13.5417C8.25403 13.5418 8.25184 13.5414 8.25202 13.5412ZM8.34959 13.6032C8.35154 13.6066 8.3523 13.6086 8.3522 13.6088C8.3521 13.609 8.35113 13.6073 8.34959 13.6032ZM6.95789 9.12366C6.9582 9.12381 6.95888 9.12657 6.95904 9.13148C6.95767 9.12595 6.95759 9.1235 6.95789 9.12366ZM6.93498 9.20051C6.93161 9.20451 6.92919 9.20639 6.92882 9.20634C6.92845 9.20628 6.93014 9.20429 6.93498 9.20051ZM9.46067 5.80821C9.67665 5.52618 10.003 5.20817 10.5 5.20817C10.997 5.20817 11.3234 5.52618 11.5393 5.80821C11.7486 6.08144 11.9651 6.46992 12.2095 6.90846L12.3686 7.19395C12.4483 7.33681 12.4911 7.41268 12.5265 7.46594C12.5335 7.47653 12.5391 7.48432 12.5432 7.48988C12.5484 7.49177 12.5553 7.49412 12.5641 7.4969C12.6211 7.51487 12.7009 7.53344 12.8563 7.5686L13.1676 7.63904C13.6403 7.74592 14.0643 7.8418 14.3809 7.96658C14.7196 8.10006 15.095 8.32747 15.2396 8.79247C15.382 9.25065 15.2103 9.65239 15.0163 9.96045C14.8323 10.2528 14.5452 10.5885 14.2214 10.967L14.0109 11.2132C13.9054 11.3365 13.8499 11.4022 13.8125 11.4535C13.8014 11.4689 13.7948 11.4792 13.7911 11.4852C13.7905 11.4929 13.79 11.5064 13.7904 11.5281C13.7918 11.5941 13.7999 11.6828 13.8158 11.8469L13.8475 12.1739C13.8967 12.6803 13.9399 13.1261 13.9244 13.4736C13.9084 13.8324 13.8247 14.271 13.4383 14.5644C13.0416 14.8655 12.5941 14.8126 12.2491 14.7137C11.9227 14.6202 11.5262 14.4376 11.0838 14.2339L11.0404 14.2139L10.7922 14.0996C10.6467 14.0326 10.5714 13.9985 10.515 13.9779C10.5092 13.9758 10.5042 13.9741 10.5 13.9727C10.4958 13.9741 10.4908 13.9758 10.4851 13.9779C10.4286 13.9985 10.3533 14.0326 10.2079 14.0996L9.9162 14.2339C9.47382 14.4376 9.07728 14.6202 8.75093 14.7137C8.40591 14.8126 7.95842 14.8655 7.56175 14.5644C7.17527 14.271 7.09159 13.8324 7.0756 13.4736C7.06012 13.1261 7.10336 12.6803 7.15247 12.1739L7.18416 11.8469C7.20006 11.6828 7.20823 11.5941 7.20956 11.5281C7.21 11.5064 7.20947 11.4929 7.20891 11.4852C7.20525 11.4792 7.19864 11.4689 7.18746 11.4535C7.15012 11.4022 7.0946 11.3365 6.98914 11.2132L6.77862 10.967C6.45483 10.5885 6.16773 10.2528 5.98367 9.96045C5.78975 9.65239 5.61797 9.25065 5.76045 8.79247C5.90506 8.32747 6.28041 8.10006 6.61911 7.96658C6.93576 7.8418 7.35972 7.74592 7.83238 7.63904C7.84772 7.63557 7.86311 7.63209 7.87855 7.62859L8.1437 7.5686C8.29909 7.53344 8.37891 7.51487 8.43591 7.4969C8.44472 7.49412 8.45159 7.49177 8.4568 7.48987C8.46094 7.48432 8.46647 7.47653 8.47352 7.46594C8.50894 7.41268 8.55174 7.33681 8.63137 7.19395L8.76791 6.94901C8.77547 6.93545 8.78301 6.92193 8.79051 6.90846C9.03492 6.46992 9.25143 6.08144 9.46067 5.80821ZM7.20829 11.4787C7.20809 11.4777 7.20802 11.4772 7.20803 11.4771L7.20829 11.4787ZM12.5526 7.50165C12.5526 7.50167 12.553 7.50207 12.5526 7.50165V7.50165ZM1.54167 9.99984C1.54167 9.65466 1.82149 9.37484 2.16667 9.37484H3.83334C4.17852 9.37484 4.45834 9.65466 4.45834 9.99984C4.45834 10.345 4.17852 10.6248 3.83334 10.6248H2.16667C1.82149 10.6248 1.54167 10.345 1.54167 9.99984ZM16.5417 9.99984C16.5417 9.65466 16.8215 9.37484 17.1667 9.37484H18.8333C19.1785 9.37484 19.4583 9.65466 19.4583 9.99984C19.4583 10.345 19.1785 10.6248 18.8333 10.6248H17.1667C16.8215 10.6248 16.5417 10.345 16.5417 9.99984ZM6.2279 14.2719C6.47198 14.516 6.47198 14.9117 6.2279 15.1558L5.94203 15.4417C5.69795 15.6858 5.30222 15.6858 5.05815 15.4417C4.81407 15.1976 4.81407 14.8019 5.05815 14.5578L5.34402 14.2719C5.5881 14.0279 5.98382 14.0279 6.2279 14.2719ZM14.7721 14.2721C15.0162 14.028 15.4119 14.028 15.656 14.2721L15.9418 14.558C16.1859 14.8021 16.1859 15.1978 15.9418 15.4419C15.6978 15.686 15.302 15.686 15.058 15.4419L14.7721 15.156C14.528 14.9119 14.528 14.5162 14.7721 14.2721ZM10.5 16.0415C10.8452 16.0415 11.125 16.3213 11.125 16.6665V18.3332C11.125 18.6783 10.8452 18.9582 10.5 18.9582C10.1548 18.9582 9.87501 18.6783 9.87501 18.3332V16.6665C9.87501 16.3213 10.1548 16.0415 10.5 16.0415Z" fill="#FFF9EB"/>
</svg>
