<svg width="24" height="25" viewBox="0 0 24 25" fill="none" xmlns="http://www.w3.org/2000/svg">
<path fill-rule="evenodd" clip-rule="evenodd" d="M12 8.75C9.92894 8.75 8.25 10.4289 8.25 12.5C8.25 14.5711 9.92894 16.25 12 16.25C14.0711 16.25 15.75 14.5711 15.75 12.5C15.75 10.4289 14.0711 8.75 12 8.75ZM9.75 12.5C9.75 11.2574 10.7574 10.25 12 10.25C13.2426 10.25 14.25 11.2574 14.25 12.5C14.25 13.7426 13.2426 14.75 12 14.75C10.7574 14.75 9.75 13.7426 9.75 12.5Z" fill="#10316B"/>
<path fill-rule="evenodd" clip-rule="evenodd" d="M11.9747 1.75C11.5303 1.74999 11.1592 1.74999 10.8546 1.77077C10.5375 1.79241 10.238 1.83905 9.94761 1.95933C9.27379 2.23844 8.73843 2.77379 8.45932 3.44762C8.31402 3.79842 8.27467 4.16812 8.25964 4.56996C8.24756 4.89299 8.08454 5.16251 7.84395 5.30141C7.60337 5.44031 7.28845 5.44673 7.00266 5.29568C6.64714 5.10777 6.30729 4.95699 5.93083 4.90743C5.20773 4.81223 4.47642 5.00819 3.89779 5.45219C3.64843 5.64353 3.45827 5.8796 3.28099 6.1434C3.11068 6.39681 2.92517 6.71815 2.70294 7.10307L2.67769 7.14681C2.45545 7.53172 2.26993 7.85304 2.13562 8.12723C1.99581 8.41267 1.88644 8.69539 1.84541 9.00701C1.75021 9.73012 1.94617 10.4614 2.39016 11.0401C2.62128 11.3412 2.92173 11.5602 3.26217 11.7741C3.53595 11.9461 3.68788 12.2221 3.68786 12.5C3.68785 12.7778 3.53592 13.0538 3.26217 13.2258C2.92169 13.4397 2.62121 13.6587 2.39007 13.9599C1.94607 14.5385 1.75012 15.2698 1.84531 15.9929C1.88634 16.3045 1.99571 16.5873 2.13552 16.8727C2.26983 17.1469 2.45535 17.4682 2.67758 17.8531L2.70284 17.8969C2.92507 18.2818 3.11058 18.6031 3.28089 18.8565C3.45817 19.1203 3.64833 19.3564 3.89769 19.5477C4.47632 19.9917 5.20763 20.1877 5.93073 20.0925C6.30717 20.0429 6.647 19.8922 7.0025 19.7043C7.28833 19.5532 7.60329 19.5596 7.8439 19.6986C8.08452 19.8375 8.24756 20.107 8.25964 20.4301C8.27467 20.8319 8.31403 21.2016 8.45932 21.5524C8.73843 22.2262 9.27379 22.7616 9.94761 23.0407C10.238 23.161 10.5375 23.2076 10.8546 23.2292C11.1592 23.25 11.5303 23.25 11.9747 23.25H12.0252C12.4697 23.25 12.8407 23.25 13.1454 23.2292C13.4625 23.2076 13.762 23.161 14.0524 23.0407C14.7262 22.7616 15.2616 22.2262 15.5407 21.5524C15.686 21.2016 15.7253 20.8319 15.7403 20.43C15.7524 20.107 15.9154 19.8375 16.156 19.6985C16.3966 19.5596 16.7116 19.5532 16.9974 19.7042C17.3529 19.8921 17.6927 20.0429 18.0692 20.0924C18.7923 20.1876 19.5236 19.9917 20.1022 19.5477C20.3516 19.3563 20.5417 19.1203 20.719 18.8565C20.8893 18.6031 21.0748 18.2818 21.297 17.8969L21.3223 17.8531C21.5445 17.4682 21.7301 17.1468 21.8644 16.8726C22.0042 16.5872 22.1135 16.3045 22.1546 15.9929C22.2498 15.2697 22.0538 14.5384 21.6098 13.9598C21.3787 13.6586 21.0782 13.4397 20.7378 13.2258C20.464 13.0538 20.3121 12.7778 20.3121 12.4999C20.3121 12.2221 20.464 11.9462 20.7377 11.7742C21.0783 11.5603 21.3788 11.3414 21.6099 11.0401C22.0539 10.4615 22.2499 9.73019 22.1547 9.00708C22.1136 8.69546 22.0043 8.41274 21.8645 8.1273C21.7302 7.85313 21.5447 7.53183 21.3224 7.14695L21.2972 7.10318C21.0749 6.71825 20.8894 6.39688 20.7191 6.14347C20.5418 5.87967 20.3517 5.6436 20.1023 5.45225C19.5237 5.00826 18.7924 4.8123 18.0692 4.9075C17.6928 4.95706 17.353 5.10782 16.9975 5.29572C16.7117 5.44679 16.3967 5.44036 16.1561 5.30144C15.9155 5.16253 15.7524 4.89297 15.7403 4.56991C15.7253 4.16808 15.686 3.7984 15.5407 3.44762C15.2616 2.77379 14.7262 2.23844 14.0524 1.95933C13.762 1.83905 13.4625 1.79241 13.1454 1.77077C12.8407 1.74999 12.4697 1.74999 12.0252 1.75H11.9747ZM10.5216 3.34515C10.5988 3.31319 10.716 3.28372 10.9567 3.26729C11.2042 3.25041 11.5238 3.25 12 3.25C12.4762 3.25 12.7958 3.25041 13.0432 3.26729C13.284 3.28372 13.4012 3.31319 13.4783 3.34515C13.7846 3.47202 14.028 3.71536 14.1548 4.02165C14.1949 4.11826 14.228 4.26887 14.2414 4.62597C14.271 5.41835 14.68 6.18129 15.4061 6.60048C16.1321 7.01968 16.9974 6.9924 17.6984 6.62188C18.0143 6.4549 18.1614 6.40832 18.265 6.39467C18.5937 6.3514 18.9261 6.44047 19.1891 6.64228C19.2554 6.69312 19.3395 6.77989 19.4741 6.98016C19.6125 7.18603 19.7726 7.4626 20.0107 7.875C20.2488 8.28741 20.4083 8.56438 20.5174 8.78713C20.6235 9.00382 20.6566 9.12007 20.6675 9.20287C20.7108 9.53155 20.6217 9.86397 20.4199 10.127C20.3562 10.21 20.2424 10.314 19.9397 10.5041C19.2684 10.926 18.8122 11.6616 18.8121 12.4999C18.8121 13.3383 19.2683 14.074 19.9397 14.4959C20.2423 14.686 20.3561 14.79 20.4198 14.873C20.6216 15.136 20.7107 15.4684 20.6674 15.7971C20.6565 15.8799 20.6234 15.9961 20.5173 16.2128C20.4082 16.4355 20.2487 16.7125 20.0106 17.1249C19.7725 17.5373 19.6124 17.8139 19.474 18.0198C19.3394 18.22 19.2553 18.3068 19.189 18.3576C18.926 18.5595 18.5936 18.6485 18.2649 18.6053C18.1613 18.5916 18.0142 18.545 17.6983 18.3781C16.9973 18.0075 16.132 17.9803 15.4059 18.3995C14.68 18.8187 14.271 19.5816 14.2414 20.374C14.228 20.7311 14.1949 20.8817 14.1548 20.9784C14.028 21.2846 13.7846 21.528 13.4783 21.6549C13.4012 21.6868 13.284 21.7163 13.0432 21.7327C12.7958 21.7496 12.4762 21.75 12 21.75C11.5238 21.75 11.2042 21.7496 10.9567 21.7327C10.716 21.7163 10.5988 21.6868 10.5216 21.6549C10.2154 21.528 9.97201 21.2846 9.84514 20.9784C9.80512 20.8817 9.77195 20.7311 9.75859 20.374C9.72896 19.5817 9.31997 18.8187 8.5939 18.3995C7.86784 17.9803 7.00262 18.0076 6.30158 18.3781C5.98565 18.5451 5.83863 18.5917 5.73495 18.6053C5.40626 18.6486 5.07385 18.5595 4.81084 18.3577C4.74458 18.3069 4.66045 18.2201 4.52586 18.0198C4.38751 17.814 4.22736 17.5374 3.98926 17.125C3.75115 16.7126 3.59171 16.4356 3.4826 16.2129C3.37646 15.9962 3.34338 15.8799 3.33248 15.7971C3.28921 15.4684 3.37828 15.136 3.5801 14.873C3.64376 14.7901 3.75761 14.686 4.0602 14.4959C4.73158 14.0741 5.18782 13.3384 5.18786 12.5001C5.18791 11.6616 4.73165 10.9259 4.06021 10.504C3.75769 10.3139 3.64385 10.2099 3.58019 10.1269C3.37838 9.8639 3.28931 9.53149 3.33258 9.2028C3.34348 9.12001 3.37656 9.00375 3.4827 8.78707C3.59181 8.56431 3.75125 8.28734 3.98935 7.87493C4.22746 7.46253 4.3876 7.18596 4.52596 6.98009C4.66055 6.77983 4.74468 6.69305 4.81093 6.64222C5.07395 6.4404 5.40636 6.35133 5.73504 6.3946C5.83873 6.40825 5.98576 6.45483 6.30173 6.62184C7.00273 6.99235 7.86791 7.01962 8.59394 6.60045C9.31998 6.18128 9.72896 5.41837 9.75859 4.62602C9.77195 4.26889 9.80512 4.11827 9.84514 4.02165C9.97201 3.71536 10.2154 3.47202 10.5216 3.34515Z" fill="#10316B"/>
</svg>
